<svg xmlns="http://www.w3.org/2000/svg" viewBox="0 0 261.78 89.16"><defs><style>.cls-1{fill:#fff;}.cls-2{fill:#f39200;}.cls-3{fill:#e94e24;}</style></defs><title>Recurso 1</title><g id="Capa_2" data-name="Capa 2"><g id="Capa_1-2" data-name="Capa 1"><path class="cls-1" d="M58.64,35.46H64V62.21H58.64Z"/><path class="cls-1" d="M71.58,37.79h.07a13.63,13.63,0,0,1,8-2.33q8.91,0,12.39,8a14.41,14.41,0,0,1,1,5.15V62.21H87.68V48.81a8.62,8.62,0,0,0-2.06-5.69,7.75,7.75,0,0,0-6-2.33q-5.49,0-7.39,4.73A9.68,9.68,0,0,0,71.58,49V62.21H66.26V49.68Q66,43,71.58,37.79Z"/><path class="cls-1" d="M108.64,35.55a10.53,10.53,0,0,1,6.86,2.06l1.21.57q-.22-7.24,3.3-7.11l6.81-.07-.09,4.55H122V64.22q0,7.66-5.44,11.89a14.1,14.1,0,0,1-8,2.29q-8.86,0-12.3-8a15.5,15.5,0,0,1-1-5.14V65h5.33v0a9.69,9.69,0,0,0,2,5.63,7.82,7.82,0,0,0,6.08,2.4q5.41,0,7.31-4.73a12.09,12.09,0,0,0,.71-4V59.67h-.06a13.27,13.27,0,0,1-8,2.63h-.16q-6.54,0-11-5.78a13.29,13.29,0,0,1-2.29-7.09v-1a13.06,13.06,0,0,1,3.57-8.66A13.28,13.28,0,0,1,108.64,35.55Zm-8,13.06v.64a7.81,7.81,0,0,0,3.11,6A8,8,0,0,0,108.64,57q4.76,0,7.36-4.73a9.83,9.83,0,0,0,.71-3.34,8.08,8.08,0,0,0-8.07-8,8,8,0,0,0-8,7.73Z"/><path class="cls-1" d="M137.79,35.46A13.28,13.28,0,0,1,148,40.19a13.61,13.61,0,0,1,3.15,8.62,16.94,16.94,0,0,1-.27,2.68H130.18A7.84,7.84,0,0,0,134.11,56a8,8,0,0,0,3.61.87,8.23,8.23,0,0,0,5.7-2.33l3.72,3.73v.07a13.14,13.14,0,0,1-9.35,3.86h-.11a13.22,13.22,0,0,1-10.2-4.73,13.55,13.55,0,0,1-3.15-8.62,13.36,13.36,0,0,1,13.46-13.4Zm-7.61,10.72h15.09a8.31,8.31,0,0,0-3.61-4.39,9,9,0,0,0-4-1q-4.26,0-7,4.09Z"/><path class="cls-1" d="M153.41,22.06h5.33V62.21h-5.33Z"/><path class="cls-1" d="M174.49,35.46a13.28,13.28,0,0,1,10.17,4.73,13.62,13.62,0,0,1,3.16,8.62,18.11,18.11,0,0,1-.28,2.68H166.87A7.85,7.85,0,0,0,170.81,56a7.94,7.94,0,0,0,3.61.87,8.22,8.22,0,0,0,5.69-2.33l3.73,3.73v.07a13.17,13.17,0,0,1-9.35,3.86h-.12a13.2,13.2,0,0,1-10.19-4.73,13.4,13.4,0,0,1,1.57-18.86A13.37,13.37,0,0,1,174.49,35.46Zm-7.62,10.72H182a8.26,8.26,0,0,0-3.61-4.39,8.94,8.94,0,0,0-4-1c-2.83,0-5.16,1.36-7,4.09Z"/><path class="cls-1" d="M198.9,35.46h15.46v5.33H198.9c-1.44,0-2.34.23-2.69.71a3.59,3.59,0,0,0-.76,2.1A2.35,2.35,0,0,0,197.1,46l1,.18h7.16q6.49,0,8.48,5a9.85,9.85,0,0,1,.52,3.11,7.43,7.43,0,0,1-4.38,7.14,8.17,8.17,0,0,1-3.34.82H190.24V56.88h16a2.49,2.49,0,0,0,2.52-1.58l.18-1.12c0-1.79-1.09-2.69-3.27-2.69h-7.73a8.2,8.2,0,0,1-5.62-2.34,7.83,7.83,0,0,1-2.18-5.62,8.71,8.71,0,0,1,2.11-5.6C193.61,36.28,195.84,35.46,198.9,35.46Z"/><path class="cls-1" d="M230.13,35.46a13.28,13.28,0,0,1,10.18,4.73,13.61,13.61,0,0,1,3.15,8.62,16.94,16.94,0,0,1-.27,2.68H222.52A7.87,7.87,0,0,0,226.45,56a8,8,0,0,0,3.61.87,8.23,8.23,0,0,0,5.7-2.33l3.72,3.73v.07a13.14,13.14,0,0,1-9.35,3.86H230a13.22,13.22,0,0,1-10.2-4.73,13.55,13.55,0,0,1-3.15-8.62,13.36,13.36,0,0,1,13.46-13.4Zm-7.61,10.72h15.09A8.26,8.26,0,0,0,234,41.79a9,9,0,0,0-4-1c-2.83,0-5.16,1.36-7,4.09Z"/><path class="cls-1" d="M251.07,38.5h.07a17.82,17.82,0,0,1,10.64-3v5.33q-7.74,0-10.06,5.39a7.8,7.8,0,0,0-.65,2.93v13.1h-5.32V48.83A13.7,13.7,0,0,1,251.07,38.5Z"/><polygon class="cls-2" points="32.11 50.12 0 89.16 55 61.64 32.11 50.12"/><polygon class="cls-3" points="39.7 26.5 55 61.64 23.58 45.82 39.7 26.5"/><polygon class="cls-2" points="62.69 0 5.64 36.35 23.58 45.82 62.69 0"/><rect class="cls-2" x="58.42" y="27.57" width="5.23" height="5.23"/></g></g></svg>